<svg version="1.1" class="svg-icon-phone" xmlns="http://www.w3.org/2000/svg" xmlns:xlink="http://www.w3.org/1999/xlink" x="0px" y="0px"
	 viewBox="0 0 40 40" style="enable-background:new 0 0 40 40;" xml:space="preserve">
	<path d="M38.8,30L33,24.2c-1.6-1.6-4.4-1.5-6,0.1l-2.3,2.3c-1.8-1-4.1-2.3-6.5-4.7c-2.4-2.4-3.8-4.7-4.7-6.5l2.3-2.3
	c1.7-1.7,1.7-4.4,0.1-6L10,1.2C8.5-0.4,5.6-0.4,4,1.3L2.4,2.9l-0.7,1C1.4,4.5,1.1,5.1,0.8,5.8C0.4,6.7,0.2,7.6,0.1,8.5
	c-0.8,6.8,2.2,12.9,10.3,21.1C20.1,39.2,28.4,40,30.7,40c0.5,0,0.8,0,0.8,0c0.9-0.1,1.8-0.3,2.7-0.7c0.6-0.3,1.3-0.6,1.8-0.9
	l2.7-2.3C40.4,34.4,40.4,31.7,38.8,30z M37,34.3l-1.3,1.3l-0.3,0.2c-0.6,0.5-1.3,0.9-2,1.2c-0.7,0.3-1.4,0.4-2.1,0.5
	c-0.3,0.1-8.6,0.7-19-9.7c-7.6-7.6-10.4-13.1-9.6-19c0.1-0.7,0.2-1.4,0.5-2.1c0.3-0.8,0.7-1.5,1.2-2.1l0.2-0.2L5.8,3
	c0.7-0.7,1.8-0.7,2.5-0.1l5.8,5.8c0.7,0.7,0.6,1.8-0.1,2.5l-3.6,3.6l0.8,1.4c1.1,1.9,2.5,4.5,5.3,7.3c2.8,2.8,5.4,4.2,7.3,5.3
	l1.4,0.8l3.6-3.6c0.7-0.7,1.8-0.7,2.5-0.1l5.8,5.8C37.7,32.5,37.7,33.6,37,34.3z"/>
</svg>
